Coordinates
version=1
nRows=19
nColumns=24
inDegrees=yes

Units are S.I. units (second, meters, Newtons, ...)
Angles are in degrees.

endheader
time	pelvis_tilt	pelvis_list	pelvis_rotation	pelvis_tx	pelvis_ty	pelvis_tz	hip_flexion_r	hip_adduction_r	hip_rotation_r	knee_angle_r	ankle_angle_r	subtalar_angle_r	mtp_angle_r	hip_flexion_l	hip_adduction_l	hip_rotation_l	knee_angle_l	ankle_angle_l	subtalar_angle_l	mtp_angle_l	lumbar_extension	lumbar_bending	lumbar_rotation
      0.71700000	     -5.43890920	      7.26050978	     10.41098452	     -0.08141231	      0.96398368	      0.24394372	     38.68756721	    -13.42125373	    -10.76032097	     -5.89408143	      6.28560845	     -5.64266229	     -0.57834534	    -15.33410871	      7.72325506	     -2.26635484	     -2.09455836	     13.56001451	      0.84404899	      0.55426012	     -7.93267941	     -7.00138005	     -7.11382534
      0.72116667	     -5.46515379	      7.27410612	     10.53648457	     -0.07573359	      0.96287183	      0.24401762	     38.56670472	    -13.49170032	    -10.68229347	     -6.42310784	      6.37527309	     -5.71363186	     -0.63959498	    -15.55291366	      7.60860614	     -2.19725996	     -2.32147450	     13.65827497	      0.96074829	      0.59519168	     -7.87909999	     -6.94825056	     -7.11795119
      0.72533333	     -5.48485832	      7.27727461	     10.65478087	     -0.07000735	      0.96180111	      0.24412629	     38.43824209	    -13.54446343	    -10.61378881	     -6.97565080	      6.43064494	     -5.78309639	     -0.70081644	    -15.77103199	      7.47901055	     -2.14539495	     -2.55728256	     13.71511255	      1.11370789	      0.64207093	     -7.83668392	     -6.88399845	     -7.16132270
      0.72950000	     -5.47034735	      7.25303331	     10.77054290	     -0.06425180	      0.96083029	      0.24430578	     38.25898277	    -13.56030780	    -10.57246802	     -7.51566032	      6.41687553	     -5.83160927	     -0.82941903	    -16.00389767	      7.30279161	     -2.13360044	     -2.82075679	     13.78738486	      1.37651145	      0.75551498	     -7.85131306	     -6.77533874	     -7.27815906
      0.73366667	     -5.47543691	      7.22186198	     10.87326818	     -0.05838602	      0.95986368	      0.24446913	     38.09752803	    -13.56244669	    -10.54752234	     -8.05931963	      6.39012473	     -5.94697501	     -0.89456249	    -16.23059682	      7.13181979	     -2.10813212	     -3.05617350	     13.77345873	      1.49897690	      0.82470835	     -7.78377217	     -6.67066460	     -7.30647090
      0.73783333	     -5.51609208	      7.19355142	     10.92920615	     -0.05248137	      0.95884086	      0.24471458	     37.99892227	    -13.54172070	    -10.48809927	     -8.61557815	      6.25548367	     -5.98759731	     -0.90702629	    -16.42766605	      6.98392801	     -2.06786516	     -3.27641350	     13.72696901	      1.54195247	      0.84029700	     -7.69838483	     -6.57156737	     -7.31271906
      0.74200000	     -5.34233380	      7.03251930	     11.01883444	     -0.04649426	      0.95831886	      0.24503001	     37.56813425	    -13.37484942	    -10.57730377	     -8.99861692	      5.99882186	     -6.22798565	     -1.08378886	    -16.77888643	      6.61760318	     -2.21682851	     -3.57668593	     13.74150562	      1.94835290	      1.14993841	     -7.83700430	     -6.28803930	     -7.46643775
      0.74616667	     -5.38359661	      7.01260858	     11.05586459	     -0.04054211	      0.95737799	      0.24535260	     37.48220543	    -13.34599413	    -10.54284191	     -9.54586389	      5.81292078	     -6.27516432	     -1.09206371	    -16.96535799	      6.47838770	     -2.16476558	     -3.81236423	     13.65459842	      1.97909792	      1.16691229	     -7.74581691	     -6.20205637	     -7.45350212
      0.75033333	     -5.20450765	      6.83186892	     11.07800342	     -0.03446152	      0.95695332	      0.24582173	     37.05358766	    -13.10414952	    -10.60204716	     -9.85160354	      5.30878714	     -6.64529518	     -1.19065694	    -17.32756690	      6.10527730	     -2.31617204	     -4.08022691	     13.54339774	      2.28183361	      1.59258835	     -7.87161294	     -5.91567370	     -7.46715163
      0.75450000	     -5.25382257	      6.75289494	     11.13023010	     -0.02846656	      0.95617690	      0.24616929	     36.94679896	    -13.02098697	    -10.64538388	    -10.27709183	      4.82776241	     -6.80561705	     -1.20298114	    -17.45960556	      5.89691932	     -2.26134401	     -4.37113018	     13.37521753	      2.32258950	      1.69393415	     -7.77476675	     -5.77856758	     -7.41699430
      0.75866667	     -5.06426776	      6.55805904	     11.06951599	     -0.02231683	      0.95583679	      0.24681642	     36.54442707	    -12.70765236	    -10.67504174	    -10.54539286	      4.18091247	     -7.25458600	     -1.17025120	    -17.81649144	      5.52594056	     -2.49418624	     -4.66016034	     13.23487733	      2.58286042	      2.18048427	     -7.89505712	     -5.46932364	     -7.39852709
      0.76283333	     -4.98122109	      6.39171455	     11.01510228	     -0.01620334	      0.95538981	      0.24743809	     36.28832525	    -12.44185443	    -10.69234175	    -10.82738345	      3.42321206	     -7.68042037	     -1.05848390	    -18.05461977	      5.21452225	     -2.62795876	     -4.96860163	     13.02340820	      2.70585823	      2.75439913	     -7.91398313	     -5.21808467	     -7.32136071
      0.76700000	     -5.03325512	      6.23150883	     11.00399978	     -0.01004622	      0.95481683	      0.24786884	     36.20018303	    -12.24656850	    -10.80011087	    -11.14639631	      2.63479492	     -7.98831025	     -1.01317035	    -18.14863052	      4.94385189	     -2.62427777	     -5.28943496	     12.73552907	      2.65252082	      2.92790077	     -7.75538185	     -4.98192513	     -7.23118102
      0.77116667	     -4.84744414	      6.01640150	     10.81761247	     -0.00387566	      0.95461813	      0.24883976	     35.87021394	    -11.82737948	    -10.73025527	    -11.35297357	      1.62683751	     -8.58833135	     -0.79308924	    -18.45881286	      4.58163697	     -2.96987760	     -5.63622712	     12.48042883	      2.91252192	      3.47948831	     -7.89677353	     -4.67962720	     -7.10163960
      0.77533333	     -4.90412085	      5.82905384	     10.75351417	      0.00232695	      0.95418092	      0.24937268	     35.82252533	    -11.57786766	    -10.82660273	    -11.64616811	      0.64138247	     -9.00742806	     -0.70957868	    -18.52085221	      4.30171774	     -2.98503986	     -5.98747122	     12.10132729	      2.78384173	      3.67413419	     -7.72687417	     -4.41916090	     -6.98263368
      0.77950000	     -4.71684105	      5.59358044	     10.45358138	      0.00855659	      0.95406902	      0.25061858	     35.55135242	    -11.06618632	    -10.65814256	    -11.85435894	     -0.53925543	     -9.73616325	     -0.35261481	    -18.80407562	      3.94576039	     -3.46673170	     -6.38268774	     11.77876717	      3.08377966	      4.34665426	     -7.86939682	     -4.11990456	     -6.73578120
      0.78366667	     -4.75558441	      5.39276753	     10.23027401	      0.01483259	      0.95371200	      0.25154256	     35.56041047	    -10.69861345	    -10.60115388	    -12.16591823	     -1.69012771	    -10.31744979	      3.79384372	    -18.85326622	      3.68044816	     -3.71759679	     -6.77461786	     11.23611054	      2.95498475	     11.97585841	     -7.71926016	     -3.86897215	     -6.43295660
      0.78783333	     -4.75782789	      5.18859035	     10.07195299	      0.02104113	      0.95355592	      0.25228999	     35.52556732	    -10.37650038	    -10.63116041	    -12.49802059	     -2.80364122	    -10.84519081	      3.76855278	    -18.91336967	      3.39911532	     -3.81000288	     -7.22057134	     10.74933156	      2.77576745	     12.01496876	     -7.63710862	     -3.59027525	     -6.37534375
      0.79200000	     -4.63742496	      4.96003228	      9.70861365	      0.02730979	      0.95353091	      0.25362045	     35.41033400	     -9.86285019	    -10.41598465	    -12.81883836	     -3.99610126	    -11.56213190	      3.78101374	    -19.07976389	      3.09436344	     -4.28847501	     -7.71000881	     10.29137984	      2.94569283	     12.17561935	     -7.69600383	     -3.31049480	     -6.06517731
